<?xml version="1.0" encoding="UTF-8"?>
<svg xmlns="http://www.w3.org/2000/svg" xmlns:xlink="http://www.w3.org/1999/xlink" width="171px" height="40px" viewBox="0 0 170 40" version="1.1">
<g id="surface1">
<path style=" stroke:none;fill-rule:nonzero;fill:rgb(14.901961%,45.09804%,22.352941%);fill-opacity:1;" d="M 10.03125 31.535156 C 9.289062 29.765625 8.917969 28 8.640625 26.140625 C 7.988281 22.789062 8.359375 18.140625 11.890625 16.652344 C 13.003906 16.1875 14.121094 16.1875 15.328125 16.558594 C 16.628906 16.929688 17.929688 17.117188 19.230469 17.300781 C 22.386719 17.859375 26.195312 17.210938 28.425781 14.976562 C 30.46875 13.023438 30.285156 9.765625 28.242188 7.722656 C 26.566406 6.140625 24.058594 5.488281 21.921875 5.300781 C 20.714844 5.210938 19.414062 5.300781 18.207031 5.582031 C 14.492188 6.324219 11.148438 8.277344 8.824219 11.347656 C 7.617188 12.929688 6.6875 14.699219 6.222656 16.558594 C 5.851562 17.953125 5.574219 19.441406 5.574219 20.835938 C 5.480469 23.535156 5.945312 26.140625 6.96875 28.652344 C 8.359375 32 10.589844 34.789062 13.285156 36.835938 C 13.191406 36.746094 13.003906 36.558594 12.914062 36.464844 C 11.703125 34.976562 10.777344 33.300781 10.03125 31.535156 Z M 11.054688 13.023438 C 12.914062 10.605469 15.699219 8.929688 18.671875 8.371094 C 18.859375 8.371094 19.136719 8.277344 19.324219 8.277344 C 20.066406 8.1875 20.808594 8.1875 21.550781 8.1875 C 23.59375 8.464844 25.269531 9.023438 26.195312 9.859375 C 26.660156 10.324219 26.941406 10.976562 26.941406 11.535156 C 26.941406 11.90625 26.847656 12.464844 26.382812 12.929688 C 25.453125 13.765625 24.152344 14.324219 22.574219 14.605469 C 21.644531 14.699219 20.621094 14.699219 19.695312 14.511719 C 19.324219 14.417969 18.949219 14.417969 18.578125 14.324219 C 17.648438 14.140625 16.8125 14.046875 15.976562 13.765625 C 14.769531 13.488281 13.65625 13.394531 12.632812 13.488281 C 11.984375 13.582031 11.332031 13.765625 10.683594 14.046875 C 10.496094 14.140625 10.3125 14.234375 10.125 14.324219 C 10.496094 13.859375 10.777344 13.488281 11.054688 13.023438 Z M 11.054688 13.023438 "/>
<path style=" stroke:none;fill-rule:nonzero;fill:rgb(76.862746%,84.705883%,18.039216%);fill-opacity:1;" d="M 22.203125 3.070312 C 24.058594 3.347656 25.824219 3.90625 27.589844 4.558594 C 30.75 5.675781 34.648438 8.277344 34.1875 12.1875 C 34 13.394531 33.441406 14.324219 32.605469 15.253906 C 31.675781 16.1875 30.839844 17.210938 30.003906 18.234375 C 27.867188 20.652344 26.566406 24.277344 27.40625 27.347656 C 28.054688 30.140625 30.933594 31.628906 33.722656 30.789062 C 35.859375 30.140625 37.714844 28.277344 39.015625 26.511719 C 39.667969 25.488281 40.222656 24.371094 40.6875 23.164062 C 41.988281 19.628906 41.804688 15.722656 40.410156 12.1875 C 39.667969 10.324219 38.550781 8.746094 37.25 7.253906 C 36.230469 6.234375 35.023438 5.300781 33.8125 4.558594 C 31.492188 3.164062 29.078125 2.234375 26.382812 1.953125 C 22.757812 1.488281 19.324219 2.046875 16.164062 3.347656 C 16.351562 3.347656 16.535156 3.253906 16.722656 3.253906 C 18.394531 2.882812 20.34375 2.789062 22.203125 3.070312 Z M 36.414062 14.417969 C 36.695312 13.765625 36.878906 13.117188 36.878906 12.464844 C 36.878906 12.277344 36.878906 12.09375 36.972656 11.8125 C 37.25 12.277344 37.4375 12.746094 37.621094 13.210938 C 38.832031 16.09375 38.832031 19.253906 37.808594 22.140625 C 37.714844 22.324219 37.621094 22.605469 37.53125 22.789062 C 37.25 23.441406 36.878906 24.1875 36.507812 24.746094 C 35.207031 26.417969 33.90625 27.535156 32.792969 27.90625 C 32.140625 28.09375 31.492188 28 30.933594 27.722656 C 30.65625 27.535156 30.191406 27.164062 30.003906 26.511719 C 29.726562 25.300781 29.914062 23.8125 30.46875 22.417969 C 30.839844 21.488281 31.398438 20.652344 31.957031 19.90625 C 32.234375 19.628906 32.421875 19.347656 32.699219 19.070312 C 33.257812 18.324219 33.90625 17.675781 34.464844 17.117188 C 35.394531 16.277344 36.042969 15.441406 36.414062 14.417969 Z M 36.414062 14.417969 "/>
<path style=" stroke:none;fill-rule:nonzero;fill:rgb(45.490196%,63.137257%,34.117648%);fill-opacity:1;" d="M 43.476562 22.882812 C 42.824219 24.652344 41.894531 26.324219 40.78125 27.8125 C 39.667969 29.300781 38.273438 30.511719 36.785156 31.722656 C 34.1875 33.859375 30.003906 35.90625 26.941406 33.582031 C 25.917969 32.835938 25.453125 31.8125 25.082031 30.699219 C 24.710938 29.394531 24.246094 28.1875 23.78125 26.976562 C 22.667969 23.90625 20.25 21.023438 17.1875 20.09375 C 14.398438 19.253906 11.703125 21.023438 11.054688 23.90625 C 10.496094 26.140625 11.242188 28.558594 12.078125 30.605469 C 12.632812 31.722656 13.285156 32.746094 14.121094 33.675781 C 16.628906 36.558594 19.972656 38.417969 23.78125 38.976562 C 25.730469 39.253906 27.683594 39.164062 29.632812 38.699219 C 31.027344 38.324219 32.421875 37.765625 33.628906 37.023438 C 35.949219 35.722656 37.996094 34.046875 39.667969 31.90625 C 41.894531 29.023438 43.195312 25.765625 43.566406 22.324219 C 43.566406 22.511719 43.476562 22.699219 43.476562 22.882812 Z M 24.152344 36.1875 C 21.085938 35.8125 18.300781 34.234375 16.257812 31.90625 C 16.070312 31.722656 15.976562 31.535156 15.792969 31.347656 C 15.328125 30.789062 14.957031 30.140625 14.585938 29.394531 C 13.75 27.441406 13.46875 25.765625 13.75 24.558594 C 13.933594 23.90625 14.304688 23.347656 14.863281 22.976562 C 15.140625 22.789062 15.699219 22.605469 16.351562 22.789062 C 17.558594 23.164062 18.671875 24 19.695312 25.300781 C 20.25 26.046875 20.808594 26.976562 21.085938 27.90625 C 21.179688 28.277344 21.367188 28.652344 21.460938 28.929688 C 21.738281 29.765625 22.109375 30.605469 22.296875 31.441406 C 22.667969 32.652344 23.132812 33.675781 23.6875 34.417969 C 24.058594 34.976562 24.617188 35.441406 25.082031 35.8125 C 25.269531 35.90625 25.453125 36.09375 25.546875 36.1875 C 25.175781 36.277344 24.710938 36.277344 24.152344 36.1875 Z M 24.152344 36.1875 "/>
<path style=" stroke:none;fill-rule:nonzero;fill:rgb(0%,0%,0%);fill-opacity:1;" d="M 60.660156 5.765625 C 62.703125 5.765625 64.378906 6.417969 65.769531 7.722656 C 67.070312 9.023438 67.722656 10.699219 67.722656 12.746094 L 67.722656 15.535156 C 67.722656 17.582031 67.070312 19.253906 65.769531 20.558594 C 64.46875 21.859375 62.796875 22.511719 60.660156 22.511719 L 53.136719 22.511719 L 53.136719 20.464844 L 54.902344 20.09375 L 54.902344 8 L 53.136719 7.628906 L 53.136719 5.765625 Z M 58.246094 8.371094 L 58.246094 20 L 60.476562 20 C 61.683594 20 62.613281 19.628906 63.355469 18.789062 C 64.003906 17.953125 64.378906 16.929688 64.378906 15.628906 L 64.378906 12.835938 C 64.378906 11.535156 64.003906 10.511719 63.355469 9.675781 C 62.613281 8.746094 61.683594 8.371094 60.476562 8.371094 Z M 58.246094 8.371094 "/>
<path style=" stroke:none;fill-rule:nonzero;fill:rgb(0%,0%,0%);fill-opacity:1;" d="M 75.433594 22.789062 C 73.667969 22.789062 72.179688 22.234375 71.160156 21.023438 C 70.042969 19.90625 69.578125 18.417969 69.578125 16.652344 L 69.578125 16.1875 C 69.578125 14.324219 70.042969 12.835938 71.066406 11.628906 C 72.085938 10.417969 73.480469 9.859375 75.152344 9.859375 C 76.824219 9.859375 78.125 10.324219 79.054688 11.347656 C 79.984375 12.371094 80.449219 13.765625 80.449219 15.441406 L 80.449219 17.300781 L 73.015625 17.300781 L 73.015625 17.394531 C 73.109375 18.234375 73.386719 18.882812 73.851562 19.441406 C 74.316406 20 74.96875 20.277344 75.804688 20.277344 C 76.546875 20.277344 77.195312 20.1875 77.660156 20.09375 C 78.125 19.90625 78.683594 19.722656 79.242188 19.347656 L 80.167969 21.394531 C 79.613281 21.765625 78.960938 22.140625 78.125 22.417969 C 77.289062 22.699219 76.453125 22.789062 75.433594 22.789062 Z M 75.152344 12.464844 C 74.503906 12.464844 74.039062 12.746094 73.667969 13.210938 C 73.296875 13.675781 73.109375 14.324219 73.015625 15.070312 L 73.015625 15.164062 L 77.105469 15.164062 L 77.105469 14.882812 C 77.105469 14.140625 76.917969 13.582031 76.640625 13.210938 C 76.269531 12.652344 75.804688 12.464844 75.152344 12.464844 Z M 75.152344 12.464844 "/>
<path style=" stroke:none;fill-rule:nonzero;fill:rgb(0%,0%,0%);fill-opacity:1;" d="M 87.136719 12.09375 L 85.929688 12.277344 L 87.601562 17.859375 L 87.785156 19.070312 L 87.878906 19.070312 L 88.160156 17.859375 L 89.738281 12.277344 L 88.621094 12.09375 L 88.621094 10.046875 L 94.289062 10.046875 L 94.289062 12.09375 L 93.175781 12.277344 L 89.460938 22.511719 L 86.207031 22.511719 L 82.492188 12.277344 L 81.46875 12.09375 L 81.46875 10.046875 L 87.136719 10.046875 Z M 87.136719 12.09375 "/>
<path style=" stroke:none;fill-rule:nonzero;fill:rgb(0%,0%,0%);fill-opacity:1;" d="M 116.957031 7.8125 L 115.5625 8 L 112.125 22.605469 L 108.96875 22.605469 L 105.902344 11.535156 L 102.835938 22.605469 L 99.675781 22.605469 L 96.242188 8 L 94.847656 7.8125 L 94.847656 5.765625 L 100.976562 5.765625 L 100.976562 7.8125 L 99.492188 8.09375 L 101.441406 17.300781 L 101.535156 17.300781 L 104.695312 5.765625 L 107.203125 5.765625 L 110.359375 17.300781 L 110.453125 17.300781 L 112.40625 8.09375 L 110.917969 7.8125 L 110.917969 5.765625 L 117.050781 5.765625 L 117.050781 7.8125 Z M 116.957031 7.8125 "/>
<path style=" stroke:none;fill-rule:nonzero;fill:rgb(0%,0%,0%);fill-opacity:1;" d="M 117.699219 16.1875 C 117.699219 14.324219 118.257812 12.835938 119.277344 11.628906 C 120.300781 10.417969 121.785156 9.859375 123.550781 9.859375 C 125.410156 9.859375 126.804688 10.417969 127.917969 11.628906 C 128.941406 12.835938 129.496094 14.324219 129.496094 16.1875 L 129.496094 16.464844 C 129.496094 18.324219 128.941406 19.90625 127.917969 21.023438 C 126.894531 22.234375 125.410156 22.789062 123.644531 22.789062 C 121.785156 22.789062 120.394531 22.234375 119.277344 21.023438 C 118.257812 19.8125 117.699219 18.324219 117.699219 16.464844 Z M 121.042969 16.464844 C 121.042969 17.582031 121.230469 18.511719 121.601562 19.164062 C 121.972656 19.8125 122.621094 20.1875 123.550781 20.1875 C 124.386719 20.1875 125.039062 19.8125 125.503906 19.164062 C 125.875 18.511719 126.152344 17.582031 126.152344 16.464844 L 126.152344 16.1875 C 126.152344 15.070312 125.96875 14.140625 125.503906 13.488281 C 125.132812 12.746094 124.480469 12.464844 123.550781 12.464844 C 122.714844 12.464844 122.066406 12.835938 121.601562 13.488281 C 121.230469 14.234375 121.042969 15.070312 121.042969 16.1875 Z M 121.042969 16.464844 "/>
<path style=" stroke:none;fill-rule:nonzero;fill:rgb(0%,0%,0%);fill-opacity:1;" d="M 131.167969 20.558594 L 132.75 20.1875 L 132.75 12.464844 L 130.984375 12.09375 L 130.984375 10.046875 L 135.90625 10.046875 L 136.09375 11.90625 C 136.371094 11.253906 136.742188 10.789062 137.207031 10.417969 C 137.671875 10.046875 138.230469 9.859375 138.785156 9.859375 C 138.972656 9.859375 139.160156 9.859375 139.34375 9.859375 C 139.53125 9.859375 139.714844 9.953125 139.808594 9.953125 L 139.4375 13.023438 L 138.042969 13.023438 C 137.578125 13.023438 137.113281 13.117188 136.835938 13.300781 C 136.558594 13.488281 136.277344 13.765625 136.09375 14.140625 L 136.09375 20.1875 L 137.671875 20.558594 L 137.671875 22.605469 L 131.078125 22.605469 L 131.078125 20.558594 Z M 131.167969 20.558594 "/>
<path style=" stroke:none;fill-rule:nonzero;fill:rgb(0%,0%,0%);fill-opacity:1;" d="M 139.902344 6.605469 L 139.902344 4.558594 L 145.011719 4.558594 L 145.011719 14.976562 L 145.753906 14.976562 L 147.703125 12.277344 L 146.589844 12.09375 L 146.589844 10.046875 L 152.722656 10.046875 L 152.722656 12.09375 L 151.234375 12.464844 L 149.003906 15.535156 L 152.164062 20.277344 L 153.464844 20.558594 L 153.464844 22.605469 L 147.703125 22.605469 L 147.703125 20.558594 L 148.355469 20.464844 L 146.40625 17.394531 L 144.917969 17.394531 L 144.917969 20.277344 L 146.40625 20.652344 L 146.40625 22.699219 L 139.996094 22.699219 L 139.996094 20.652344 L 141.574219 20.277344 L 141.574219 6.976562 Z M 139.902344 6.605469 "/>
<path style=" stroke:none;fill-rule:nonzero;fill:rgb(0%,0%,0%);fill-opacity:1;" d="M 164.796875 14.417969 L 162.566406 14.417969 L 162.195312 12.835938 C 162.011719 12.652344 161.640625 12.464844 161.359375 12.371094 C 160.988281 12.277344 160.617188 12.1875 160.246094 12.1875 C 159.6875 12.1875 159.222656 12.277344 158.851562 12.558594 C 158.480469 12.835938 158.296875 13.117188 158.296875 13.582031 C 158.296875 13.953125 158.480469 14.234375 158.757812 14.511719 C 159.132812 14.789062 159.78125 14.976562 160.710938 15.164062 C 162.289062 15.441406 163.40625 15.90625 164.148438 16.558594 C 164.890625 17.117188 165.261719 17.953125 165.261719 18.976562 C 165.261719 20.09375 164.796875 21.023438 163.777344 21.765625 C 162.847656 22.511719 161.546875 22.789062 159.96875 22.789062 C 159.039062 22.789062 158.109375 22.605469 157.367188 22.324219 C 156.53125 22.046875 155.878906 21.675781 155.230469 21.117188 L 155.230469 18.324219 L 157.550781 18.324219 L 158.015625 19.90625 C 158.203125 20.09375 158.480469 20.1875 158.851562 20.277344 C 159.222656 20.371094 159.59375 20.371094 159.96875 20.371094 C 160.617188 20.371094 161.175781 20.277344 161.546875 20 C 161.917969 19.722656 162.105469 19.441406 162.105469 18.976562 C 162.105469 18.605469 161.917969 18.324219 161.546875 18.046875 C 161.175781 17.765625 160.523438 17.582031 159.59375 17.300781 C 158.109375 17.023438 156.996094 16.558594 156.25 16 C 155.507812 15.441406 155.136719 14.605469 155.136719 13.582031 C 155.136719 12.558594 155.601562 11.628906 156.4375 10.882812 C 157.273438 10.140625 158.480469 9.765625 160.152344 9.765625 C 161.082031 9.765625 162.011719 9.859375 162.941406 10.140625 C 163.867188 10.417969 164.519531 10.699219 164.984375 11.164062 Z M 164.796875 14.417969 "/>
<path style=" stroke:none;fill-rule:nonzero;fill:rgb(0%,0%,0%);fill-opacity:1;" d="M 53.136719 32.652344 L 53.136719 26.511719 L 54.25 26.511719 L 54.25 32.652344 Z M 53.136719 32.652344 "/>
<path style=" stroke:none;fill-rule:nonzero;fill:rgb(0%,0%,0%);fill-opacity:1;" d="M 63.355469 32.652344 L 60.195312 28.277344 L 60.195312 32.652344 L 59.082031 32.652344 L 59.082031 26.511719 L 60.195312 26.511719 L 63.355469 30.789062 L 63.355469 26.511719 L 64.378906 26.511719 L 64.378906 32.652344 Z M 63.355469 32.652344 "/>
<path style=" stroke:none;fill-rule:nonzero;fill:rgb(0%,0%,0%);fill-opacity:1;" d="M 70.785156 32.652344 L 70.785156 27.535156 L 68.929688 27.535156 L 68.929688 26.605469 L 73.667969 26.605469 L 73.667969 27.535156 L 71.808594 27.535156 L 71.808594 32.652344 Z M 70.785156 32.652344 "/>
<path style=" stroke:none;fill-rule:nonzero;fill:rgb(0%,0%,0%);fill-opacity:1;" d="M 78.3125 32.652344 L 78.3125 26.511719 L 82.492188 26.511719 L 82.492188 27.441406 L 79.425781 27.441406 L 79.425781 29.023438 L 82.492188 29.023438 L 82.492188 29.953125 L 79.425781 29.953125 L 79.425781 31.628906 L 82.492188 31.628906 L 82.492188 32.558594 L 78.3125 32.558594 Z M 78.3125 32.652344 "/>
<path style=" stroke:none;fill-rule:nonzero;fill:rgb(0%,0%,0%);fill-opacity:1;" d="M 90.667969 32.652344 L 89.273438 30.417969 L 88.25 30.417969 L 88.25 32.652344 L 87.136719 32.652344 L 87.136719 26.511719 L 89.832031 26.511719 C 91.039062 26.511719 91.78125 27.253906 91.78125 28.464844 C 91.78125 29.582031 91.039062 30.140625 90.296875 30.234375 L 91.78125 32.652344 Z M 90.757812 28.464844 C 90.757812 27.90625 90.296875 27.535156 89.738281 27.535156 L 88.25 27.535156 L 88.25 29.488281 L 89.738281 29.488281 C 90.296875 29.488281 90.757812 29.023438 90.757812 28.464844 Z M 90.757812 28.464844 "/>
<path style=" stroke:none;fill-rule:nonzero;fill:rgb(0%,0%,0%);fill-opacity:1;" d="M 100.792969 32.652344 L 97.632812 28.277344 L 97.632812 32.652344 L 96.613281 32.652344 L 96.613281 26.511719 L 97.726562 26.511719 L 100.886719 30.789062 L 100.886719 26.511719 L 101.90625 26.511719 L 101.90625 32.652344 Z M 100.792969 32.652344 "/>
<path style=" stroke:none;fill-rule:nonzero;fill:rgb(0%,0%,0%);fill-opacity:1;" d="M 111.105469 32.652344 L 110.640625 31.441406 L 107.851562 31.441406 L 107.386719 32.652344 L 106.179688 32.652344 L 108.59375 26.511719 L 109.894531 26.511719 L 112.3125 32.652344 Z M 109.246094 27.628906 L 108.132812 30.511719 L 110.359375 30.511719 Z M 109.246094 27.628906 "/>
<path style=" stroke:none;fill-rule:nonzero;fill:rgb(0%,0%,0%);fill-opacity:1;" d="M 117.421875 32.652344 L 117.421875 27.535156 L 115.5625 27.535156 L 115.5625 26.605469 L 120.300781 26.605469 L 120.300781 27.535156 L 118.441406 27.535156 L 118.441406 32.652344 Z M 117.421875 32.652344 "/>
<path style=" stroke:none;fill-rule:nonzero;fill:rgb(0%,0%,0%);fill-opacity:1;" d="M 124.945312 32.652344 L 124.945312 26.511719 L 126.058594 26.511719 L 126.058594 32.652344 Z M 124.945312 32.652344 "/>
<path style=" stroke:none;fill-rule:nonzero;fill:rgb(0%,0%,0%);fill-opacity:1;" d="M 130.703125 29.582031 C 130.703125 27.722656 132.003906 26.417969 133.863281 26.417969 C 135.722656 26.417969 137.023438 27.722656 137.023438 29.582031 C 137.023438 31.441406 135.722656 32.746094 133.863281 32.746094 C 131.914062 32.746094 130.703125 31.441406 130.703125 29.582031 Z M 135.8125 29.582031 C 135.8125 28.277344 134.976562 27.347656 133.769531 27.347656 C 132.5625 27.347656 131.726562 28.277344 131.726562 29.582031 C 131.726562 30.789062 132.46875 31.8125 133.769531 31.8125 C 134.976562 31.8125 135.8125 30.882812 135.8125 29.582031 Z M 135.8125 29.582031 "/>
<path style=" stroke:none;fill-rule:nonzero;fill:rgb(0%,0%,0%);fill-opacity:1;" d="M 145.847656 32.652344 L 142.6875 28.277344 L 142.6875 32.652344 L 141.574219 32.652344 L 141.574219 26.511719 L 142.6875 26.511719 L 145.847656 30.789062 L 145.847656 26.511719 L 146.867188 26.511719 L 146.867188 32.652344 Z M 145.847656 32.652344 "/>
<path style=" stroke:none;fill-rule:nonzero;fill:rgb(0%,0%,0%);fill-opacity:1;" d="M 156.066406 32.652344 L 155.601562 31.441406 L 152.8125 31.441406 L 152.351562 32.652344 L 151.140625 32.652344 L 153.558594 26.511719 L 154.859375 26.511719 L 157.273438 32.652344 Z M 154.207031 27.628906 L 153.09375 30.511719 L 155.324219 30.511719 Z M 154.207031 27.628906 "/>
<path style=" stroke:none;fill-rule:nonzero;fill:rgb(0%,0%,0%);fill-opacity:1;" d="M 161.640625 32.652344 L 161.640625 26.511719 L 162.753906 26.511719 L 162.753906 31.628906 L 165.449219 31.628906 L 165.449219 32.558594 L 161.640625 32.558594 Z M 161.640625 32.652344 "/>
<path style=" stroke:none;fill-rule:nonzero;fill:rgb(45.490196%,63.137257%,34.117648%);fill-opacity:1;" d="M 53.042969 35.253906 L 165.261719 35.253906 L 165.261719 36.371094 L 53.042969 36.371094 Z M 53.042969 35.253906 "/>
</g>
</svg>
